<?xml version="1.0" encoding="UTF-8"?>
<svg xmlns="http://www.w3.org/2000/svg" xmlns:xlink="http://www.w3.org/1999/xlink" width="18pt" height="18pt" viewBox="0 0 18 18" version="1.1">
<g id="surface1">
<path style=" stroke:none;fill-rule:nonzero;fill:rgb(100%,100%,100%);fill-opacity:1;" d="M 15.75 5.25 L 2.25 5.25 C 1.835938 5.25 1.5 4.914062 1.5 4.5 C 1.5 4.085938 1.835938 3.75 2.25 3.75 L 15.75 3.75 C 16.164062 3.75 16.5 4.085938 16.5 4.5 C 16.5 4.914062 16.164062 5.25 15.75 5.25 Z M 15.75 8.25 L 5.25 8.25 C 4.835938 8.25 4.5 7.914062 4.5 7.5 C 4.5 7.085938 4.835938 6.75 5.25 6.75 L 15.75 6.75 C 16.164062 6.75 16.5 7.085938 16.5 7.5 C 16.5 7.914062 16.164062 8.25 15.75 8.25 Z M 15.75 11.25 L 2.25 11.25 C 1.835938 11.25 1.5 10.914062 1.5 10.5 C 1.5 10.085938 1.835938 9.75 2.25 9.75 L 15.75 9.75 C 16.164062 9.75 16.5 10.085938 16.5 10.5 C 16.5 10.914062 16.164062 11.25 15.75 11.25 Z M 15.75 14.25 L 5.25 14.25 C 4.835938 14.25 4.5 13.914062 4.5 13.5 C 4.5 13.085938 4.835938 12.75 5.25 12.75 L 15.75 12.75 C 16.164062 12.75 16.5 13.085938 16.5 13.5 C 16.5 13.914062 16.164062 14.25 15.75 14.25 Z M 15.75 14.25 "/>
</g>
</svg>
