<?xml version="1.0" encoding="UTF-8"?>
<svg xmlns="http://www.w3.org/2000/svg" xmlns:xlink="http://www.w3.org/1999/xlink" width="6pt" height="6pt" viewBox="0 0 6 6" version="1.1">
<g id="surface1">
<path style=" stroke:none;fill-rule:nonzero;fill:rgb(100%,100%,100%);fill-opacity:1;" d="M 5.25 1.75 L 0.75 1.75 C 0.613281 1.75 0.5 1.636719 0.5 1.5 C 0.5 1.363281 0.613281 1.25 0.75 1.25 L 5.25 1.25 C 5.386719 1.25 5.5 1.363281 5.5 1.5 C 5.5 1.636719 5.386719 1.75 5.25 1.75 Z M 5.25 2.75 L 1.75 2.75 C 1.613281 2.75 1.5 2.636719 1.5 2.5 C 1.5 2.363281 1.613281 2.25 1.75 2.25 L 5.25 2.25 C 5.386719 2.25 5.5 2.363281 5.5 2.5 C 5.5 2.636719 5.386719 2.75 5.25 2.75 Z M 5.25 3.75 L 0.75 3.75 C 0.613281 3.75 0.5 3.636719 0.5 3.5 C 0.5 3.363281 0.613281 3.25 0.75 3.25 L 5.25 3.25 C 5.386719 3.25 5.5 3.363281 5.5 3.5 C 5.5 3.636719 5.386719 3.75 5.25 3.75 Z M 5.25 4.75 L 1.75 4.75 C 1.613281 4.75 1.5 4.636719 1.5 4.5 C 1.5 4.363281 1.613281 4.25 1.75 4.25 L 5.25 4.25 C 5.386719 4.25 5.5 4.363281 5.5 4.5 C 5.5 4.636719 5.386719 4.75 5.25 4.75 Z M 5.25 4.75 "/>
</g>
</svg>
